<?xml version="1.0" standalone="no"?><!DOCTYPE svg PUBLIC "-//W3C//DTD SVG 1.1//EN" "http://www.w3.org/Graphics/SVG/1.1/DTD/svg11.dtd"><svg t="1740230160441" class="icon" viewBox="0 0 1024 1024" version="1.1" xmlns="http://www.w3.org/2000/svg" p-id="2735" xmlns:xlink="http://www.w3.org/1999/xlink" width="200" height="200"><path d="M835.5 165.9c-5.9-13.3-13.9-24.9-23.9-35-10-10-21.7-18-34.9-23.9-13.3-5.9-27.6-8.8-42.9-8.8H291.6c-15.3 0-29.6 3-42.9 8.8-13.3 5.9-24.9 13.9-34.9 23.9-10 10-18 21.7-23.9 35-5.9 13.3-8.8 27.6-8.8 42.9V707c0 15.3 0.1 29.6 0.4 42.9 0.3 13.3 1.9 24.9 4.9 34.9 2.9 10 8.3 18 15.9 23.9 7.7 5.9 18.9 8.8 33.6 8.8v54.9c0 15.3 5.5 28.5 16.4 39.4 10.9 10.9 24 16.4 39.4 16.4 15.3 0 28.3-5.5 38.9-16.4 10.6-10.9 15.9-24 15.9-39.4v-54.9H679v54.9c0 15.3 5.3 28.5 15.9 39.4 10.6 10.9 23.6 16.4 38.9 16.4 15.3 0 28.5-5.5 39.4-16.4 10.9-10.9 16.4-24 16.4-39.4v-54.9c15.3 0 26.8-2.9 34.5-8.8 7.7-5.9 13-13.9 15.9-23.9 2.9-10 4.4-21.8 4.4-35.4V208.8c0-15.3-3-29.6-8.9-42.9zM380.9 161c5.3-5.3 11.8-8 19.5-8H625c7.7 0 14.2 2.6 19.5 8 5.3 5.3 8 11.8 8 19.5 0 8.3-2.6 15-8 20.4-5.3 5.3-11.8 8-19.5 8H400.4c-7.7 0-14.2-2.7-19.5-8-5.3-5.3-8-12.1-8-20.4 0.1-7.7 2.7-14.1 8-19.5zM346 703.9c-8 8-17.5 11.9-28.7 11.9-11.8 0-21.5-4-29.2-11.9-7.7-8-11.5-17.6-11.5-28.8s3.8-20.8 11.5-28.8 17.4-11.9 29.2-11.9c11.2 0 20.8 4 28.7 11.9 8 8 11.9 17.5 11.9 28.8s-4 20.8-11.9 28.8z m385.6-1.3c-7.4 7.7-16.4 11.5-27 11.5-11.2 0-20.5-3.8-27.9-11.5-7.4-7.7-11.1-16.8-11.1-27.4 0-10.6 3.7-19.8 11.1-27.4 7.4-7.7 16.7-11.5 27.9-11.5 10.6 0 19.6 3.8 27 11.5 7.4 7.7 11.1 16.8 11.1 27.4 0 10.6-3.7 19.7-11.1 27.4z m57.9-217.7H235.9V263.7h553.7v221.2z" p-id="2736" fill="#ffffff"></path></svg>